<svg id="Layer_1" data-name="Layer 1" xmlns="http://www.w3.org/2000/svg" viewBox="0 0 509.54 359.28">
  <defs>
    <style>
      .cls-1 {
        fill: #f7cd79;
        stroke-width: 0px;
      }
    </style>
  </defs>
  <path class="cls-1" d="M509.46,165.14c-7.35.18-14.91-1.33-22.12-4.83-21.14-10.24-31.73-35.01-24.63-57.4,6.63-20.91,26.1-33.88,46.71-33.4l-.02-54.68c0-10.1-9.88-17.24-19.47-14.08l-118.1,38.88c5.02,11.64,5.21,25.4-1,38.04-9.3,18.92-31.03,28.96-51.47,23.8-17.34-4.37-29.44-17.84-33.14-33.65L10.19,158.71c-13.41,4.41-13.65,23.29-.36,28.05l74.74,26.74c16.67-29.34,52.47-43.38,85.34-31.62,32.87,11.76,51.64,45.31,45.92,78.57l273.88,97.96c9.66,3.46,19.83-3.71,19.82-13.97l-.08-179.3ZM373.78,290.05c-19.59-7.01-29.79-28.57-22.78-48.16,7.01-19.59,28.57-29.79,48.16-22.78,19.59,7.01,29.79,28.57,22.78,48.16-7.01,19.59-28.57,29.79-48.16,22.78Z"/>
</svg>