<?xml version="1.0" encoding="UTF-8"?>
<svg xmlns="http://www.w3.org/2000/svg" viewBox="0 0 423.51 507.47">
  <defs>
    <style>
      .cls-1 {
        fill: #f7cd79;
      }

      .cls-1, .cls-2, .cls-3, .cls-4, .cls-5 {
        stroke-width: 0px;
      }

      .cls-6 {
        fill: none;
        stroke: #fff;
        stroke-linecap: round;
        stroke-miterlimit: 10;
        stroke-width: 5.11px;
      }

      .cls-2 {
        fill: #fff;
      }

      .cls-3 {
        fill: #d3d3d3;
      }

      .cls-4 {
        fill: #1e1e1b;
      }

      .cls-5 {
        fill: #424039;
      }
    </style>
  </defs>
  <g id="Layer_1" data-name="Layer 1">
    <g>
      <path class="cls-4" d="M0,243.88l32.61,41.8L345.24,41.8,312.63,0,0,243.88ZM133.38,203.7l-80.72,2.45,43.82-34.19,80.72-2.45-43.82,34.19ZM208.66,144.98l-80.72,2.45,43.82-34.19,80.72-2.45-43.82,34.19ZM284.13,86.11l-80.72,2.45,43.82-34.19,80.72-2.45-43.82,34.19Z"/>
      <polygon class="cls-2" points="52.67 206.16 133.38 203.7 177.21 169.52 96.49 171.97 52.67 206.16"/>
      <polygon class="cls-2" points="127.94 147.44 208.66 144.98 252.48 110.8 171.76 113.25 127.94 147.44"/>
      <polygon class="cls-2" points="203.42 88.56 284.13 86.11 327.96 51.92 247.24 54.37 203.42 88.56"/>
    </g>
    <path class="cls-4" d="M34.06,312.19h382.13v185.77c0,5.25-4.26,9.52-9.52,9.52H43.58c-5.25,0-9.52-4.26-9.52-9.52v-185.77h0Z"/>
    <g>
      <path class="cls-4" d="M423.51,312.19v-53.02H27.01v53.02h396.5ZM212.47,261.82l-65.15,47.71h-55.58l65.15-47.71h55.58ZM307.94,261.82l-65.15,47.71h-55.58l65.15-47.71h55.58ZM403.66,261.82l-65.15,47.71h-55.58l65.15-47.71h55.58Z"/>
      <polygon class="cls-2" points="91.73 309.54 156.89 261.82 212.47 261.82 147.32 309.54 91.73 309.54"/>
      <polygon class="cls-2" points="187.2 309.54 252.36 261.82 307.94 261.82 242.79 309.54 187.2 309.54"/>
      <polygon class="cls-2" points="282.93 309.54 348.08 261.82 403.66 261.82 338.51 309.54 282.93 309.54"/>
    </g>
    <line class="cls-6" x1="46.19" y1="369.28" x2="403.31" y2="369.28"/>
    <line class="cls-6" x1="46.19" y1="441.55" x2="403.31" y2="441.55"/>
    <line class="cls-6" x1="159.36" y1="369.28" x2="159.36" y2="438.99"/>
    <line class="cls-6" x1="291.48" y1="369.28" x2="291.48" y2="438.99"/>
    <path class="cls-5" d="M38.73,242.43l66.17,57.31c4.96,4.3,1.92,12.44-4.64,12.44H34.1c-3.91,0-7.09-3.17-7.09-7.09v-57.31c0-6.07,7.14-9.33,11.73-5.36Z"/>
    <circle class="cls-3" cx="34.06" cy="247.79" r="5.44"/>
    <circle class="cls-3" cx="34.06" cy="305.13" r="5.44"/>
    <circle class="cls-3" cx="99.93" cy="305.13" r="5.44"/>
  </g>
  <g id="Layer_3" data-name="Layer 3">
    <path class="cls-1" d="M388.49,140.27c-3.53,1.36-7.45,1.94-11.56,1.5-12.02-1.3-21.44-11.46-21.88-23.54-.41-11.28,6.77-20.94,16.84-24.28l-9.49-26.49c-1.75-4.89-7.77-6.64-11.87-3.45l-50.48,39.31c4.45,4.77,6.93,11.4,6.11,18.61-1.22,10.78-10.02,19.41-20.82,20.45-9.16.89-17.36-3.54-21.89-10.56l-117.99,91.87c-5.73,4.46-2.58,13.65,4.69,13.65h40.85c2.99-17.11,17.91-30.11,35.87-30.11s32.88,13.01,35.87,30.11h149.68c5.28,0,8.96-5.23,7.18-10.2l-31.11-86.86ZM344.4,224.31c-10.71,0-19.39-8.68-19.39-19.39s8.68-19.39,19.39-19.39,19.39,8.68,19.39,19.39-8.68,19.39-19.39,19.39Z"/>
  </g>
</svg>