<?xml version="1.0" encoding="UTF-8"?>
<svg xmlns="http://www.w3.org/2000/svg" version="1.1" viewBox="0 0 320 27">
  <defs>
    <style>
      .cls-1 {
        fill: #000;
      }

      .cls-1, .cls-2 {
        stroke-width: 0px;
      }

      .cls-2 {
        fill: #fff;
      }
    </style>
  </defs>
  <g id="Layer_1" data-name="Layer 1">
    <rect class="cls-1" width="320" height="27"/>
  </g>
  <g id="Layer_2" data-name="Layer 2">
    <g>
      <polygon class="cls-2" points="37.2 11.8 38 11.8 53.7 11.8 43.8 2 43.9 2 43.8 1.8 24.2 1.8 24.3 2 24.3 2 34.2 11.8 37.2 11.8"/>
      <polygon class="cls-2" points="74.7 11.8 91.3 11.8 83 3.5 81.3 1.8 61.8 1.8 61.9 2 71.8 11.8 74.7 11.8"/>
      <polygon class="cls-2" points="109.4 11.8 111.8 11.8 129 11.8 120.4 3.3 119.1 2 119 1.8 99.4 1.8 99.5 2 109.4 11.8"/>
      <polygon class="cls-2" points="147.2 11.8 149.7 11.8 166.8 11.8 158.2 3.3 156.9 2 156.8 1.8 137.2 1.8 137.3 2 147.2 11.8"/>
      <polygon class="cls-2" points="184.6 11.8 187.1 11.8 204.2 11.8 195.7 3.3 194.4 2 194.2 1.8 174.7 1.8 174.8 2 184.6 11.8"/>
      <polygon class="cls-2" points="204.8 14 186.8 14 185 14 174.5 24.5 194.4 24.5 195.8 23 195.9 23.1 205 14 205.7 13.3 205.6 13.2 204.8 14"/>
      <polygon class="cls-2" points="225.4 11.8 242.1 11.8 233.8 3.5 232.3 2 232.2 1.8 212.5 1.8 212.7 2 222.5 11.8 225.4 11.8"/>
      <polygon class="cls-2" points="263.1 11.8 279.6 11.8 271.3 3.6 269.6 1.8 250 1.8 250.2 2 260 11.8 263.1 11.8"/>
      <polygon class="cls-2" points="300.8 11.8 317.6 11.8 316 10.2 316 10.2 309.2 3.4 307.7 1.8 288.1 1.8 298.1 11.8 300.8 11.8"/>
      <polygon class="cls-2" points="318.4 14 300.2 14 298.6 14 288.2 24.5 308 24.5 318.5 14 318.4 14"/>
      <polygon class="cls-2" points="262.2 14 260.9 14 250.5 24.5 270.4 24.5 280.8 14 280.2 14 262.2 14"/>
      <polygon class="cls-2" points="224.7 14 223.3 14 212.8 24.5 232.7 24.5 243.2 14 242.6 14 224.7 14"/>
      <polygon class="cls-2" points="149.3 14 147.5 14 137 24.5 156.9 24.5 167.4 14 167.3 14 149.3 14"/>
      <polygon class="cls-2" points="111.5 14 109.7 14 99.2 24.5 119.1 24.5 120.6 23 120.6 23.1 129.7 14 129.6 14 111.5 14"/>
      <polygon class="cls-2" points="73.9 14 72.6 14 62.1 24.5 82 24.5 92.5 14 92.1 14 73.9 14"/>
      <polygon class="cls-2" points="36.3 14 35 14 24.6 24.5 43.9 24.5 45.4 23 45.4 23 54.4 14 40.2 14 36.3 14"/>
      <polygon class="cls-2" points="8.1 2 7.9 1.8 4 1.8 4 11.8 17.9 11.8 8.1 2"/>
      <polygon class="cls-2" points="4 14 4 17.5 4 24.5 8.5 24.5 9.7 23.2 9.8 23.3 19.1 14 4.4 14 4 14"/>
    </g>
  </g>
</svg>