<?xml version="1.0" encoding="UTF-8"?>
<svg id="github" xmlns="http://www.w3.org/2000/svg" viewBox="0 0 48.03 48">
  <defs>
    <style>
      .cls-1 {
        fill: #FFFFFF;
        stroke-width: 0px;
      }
    </style>
  </defs>
  <path class="cls-1" d="M38.03,0H10.03C4.51,0,.03,4.48.03,10v28c0,5.52,4.48,10,10,10h28c5.52,0,10-4.48,10-10V10c0-5.52-4.48-10-10-10ZM29.1,39.18c-.81.16-1.07-.34-1.07-.77v-4.39c0-1.49-.52-2.47-1.1-2.96,3.56-.4,7.31-1.75,7.31-7.89,0-1.75-.62-3.18-1.65-4.29.16-.4.71-2.03-.16-4.23,0,0-1.34-.43-4.4,1.64-1.28-.36-2.65-.53-4.01-.54-1.36,0-2.73.18-4.01.54-3.06-2.07-4.4-1.64-4.4-1.64-.87,2.2-.32,3.83-.15,4.24-1.02,1.12-1.65,2.55-1.65,4.29,0,6.13,3.73,7.5,7.29,7.91-.46.4-.87,1.1-1.02,2.14-.91.41-3.23,1.11-4.66-1.33,0,0-.85-1.54-2.45-1.65,0,0-1.56-.02-.11.97,0,0,1.05.49,1.78,2.34,0,0,.93,2.86,5.38,1.89v2.98c0,.42-.26.92-1.06.77-6.36-2.11-10.94-8.11-10.94-15.18,0-8.84,7.16-16,16-16s16,7.16,16,16c0,7.07-4.58,13.06-10.93,15.18Z"/>
</svg>